<?xml version="1.0" encoding="UTF-8"?>
<!DOCTYPE svg PUBLIC "-//W3C//DTD SVG 1.1//EN" "http://www.w3.org/Graphics/SVG/1.1/DTD/svg11.dtd">
<!-- Creator: CorelDRAW -->
<svg xmlns="http://www.w3.org/2000/svg" xml:space="preserve" width="6.82666in" height="6.82666in" style="shape-rendering:geometricPrecision; text-rendering:geometricPrecision; image-rendering:optimizeQuality; fill-rule:evenodd; clip-rule:evenodd"
viewBox="0 0 6.82666 6.82666"
 xmlns:xlink="http://www.w3.org/1999/xlink">
 <defs>
  <style type="text/css">
   <![CDATA[
    .fil2 {fill:none}
    .fil1 {fill:#212121}
    .fil0 {fill:#212121;fill-rule:nonzero}
   ]]>
  </style>
 </defs>
 <g id="Layer_x0020_1">
  <metadata id="CorelCorpID_0Corel-Layer"/>
  <g id="_554250544">
   <path id="_554250064" class="fil0" d="M0.96 0.986661l1.84006 0 0.0660709 0 0.0293465 0.0600039 0.622811 1.27333 2.34838 0 0.106669 0 0 0.106669 0 3.30667 -3.93701e-006 0.106669 -0.106665 0 -1.06665 0 -3.84002 0 -0.106669 0 0 -0.106669 0 -3.30667 0 -1.33334 0 -0.106669 0.106669 0zm1.77399 0.213339l-1.66732 0 0 1.22667 0 3.2 3.73335 0 0.959976 0 0 -3.09333 -2.30778 0 -0.0660669 0 -0.0293504 -0.0600039 -0.622811 -1.27333z"/>
   <polygon id="_554250688" class="fil0" points="3.14788,1.57333 5.86667,1.57333 5.97333,1.57333 5.97333,1.68 5.97333,2.42667 5.97333,2.53334 5.86667,2.53334 3.45222,2.53334 3.45222,2.32 5.76,2.32 5.76,1.78667 3.14788,1.78667 "/>
   <path id="_554250616" class="fil0" d="M3.50924 2.93996l1.27404 2.20669 -0.0920827 0.0533346 0.092378 -0.0533346c0.0294528,0.0510157 0.0119724,0.11626 -0.0390433,0.145713 -0.0171969,0.0099252 -0.0360079,0.0145157 -0.0545197,0.0142913l-2.55456 0c-0.0589094,0 -0.106669,-0.0477598 -0.106669,-0.106669 0,-0.022126 0.00673622,-0.0426772 0.0182717,-0.0597165l1.27411 -2.20682 -0.000220472 -0.000125984c0.0294528,-0.0510157 0.0946969,-0.0684961 0.145713,-0.0390433 0.0191614,0.011063 0.0335906,0.0271732 0.0425787,0.0456811zm0.997496 2.15336l-1.09341 -1.89383 -1.09341 1.89383 2.18682 0z"/>
   <path id="_554250016" class="fil0" d="M3.52 3.67684c0,-0.0589094 -0.0477598,-0.106669 -0.106669,-0.106669 -0.0589094,0 -0.106669,0.0477598 -0.106669,0.106669l0 0.885059c0,0.0589094 0.0477598,0.106669 0.106669,0.106669 0.0589094,0 0.106669,-0.0477598 0.106669,-0.106669l0 -0.885059z"/>
   <circle id="_554250400" class="fil1" cx="3.41333" cy="4.81921" r="0.0951959"/>
  </g>
 </g>
 <rect class="fil2" width="6.82666" height="6.82666"/>
</svg>
